HIERARCHY
ROOT simHips
{
  OFFSET 6.13146 95.3961 -0.669452
  CHANNELS 6 Xposition Yposition Zposition Zrotation Xrotation Yrotation
  JOINT simSpine
  {
    OFFSET -0.000360269 21.3001 -0.0169217
    CHANNELS 3 Zrotation Xrotation Yrotation
    JOINT simLeftArm
    {
      OFFSET 13.5181 21.3012 -2.3511e-005
      CHANNELS 3 Zrotation Xrotation Yrotation
      JOINT simLeftForeArm
      {
        OFFSET 24.5783 0 -6.3921e-005
        CHANNELS 3 Zrotation Xrotation Yrotation
        JOINT simLeftHand
        {
          OFFSET 24.5783 0 0
          CHANNELS 3 Zrotation Xrotation Yrotation
          End Site
          {
            OFFSET 7.32568 1.52588e-005 0.0169305
          }
        }
      }
    }
    JOINT simHead
    {
      OFFSET 0 27.4458 -0.00488811
      CHANNELS 3 Zrotation Xrotation Yrotation
      End Site
      {
        OFFSET 0 0 0
      }
    }
    JOINT simRightArm
    {
      OFFSET -13.5174 21.3012 -1.52733e-005
      CHANNELS 3 Zrotation Xrotation Yrotation
      JOINT simRightForeArm
      {
        OFFSET -24.5783 -0.000552281 0.000112897
        CHANNELS 3 Zrotation Xrotation Yrotation
        JOINT simRightHand
        {
          OFFSET -24.5783 0 1.19926e-005
          CHANNELS 3 Zrotation Xrotation Yrotation
          End Site
          {
            OFFSET -7.32568 1.52588e-005 0.0169305
          }
        }
      }
    }
  }
  JOINT simRightUpLeg
  {
    OFFSET -8.44614 -9.41038 0.835682
    CHANNELS 3 Zrotation Xrotation Yrotation
    JOINT simRightLeg
    {
      OFFSET -3.23466e-005 -40.9639 0
      CHANNELS 3 Zrotation Xrotation Yrotation
      JOINT simRightFoot
      {
        OFFSET 0 -40.9639 0
        CHANNELS 3 Zrotation Xrotation Yrotation
        End Site
        {
          OFFSET 0.50614 -9.67405 14.6709
        }
      }
    }
  }
  JOINT simLeftUpLeg
  {
    OFFSET 8.44614 -9.41038 0.835681
    CHANNELS 3 Zrotation Xrotation Yrotation
    JOINT simLeftLeg
    {
      OFFSET -0.00018133 -40.964 6.2497e-005
      CHANNELS 3 Zrotation Xrotation Yrotation
      JOINT simLeftFoot
      {
        OFFSET 0 -40.9639 0
        CHANNELS 3 Zrotation Xrotation Yrotation
        End Site
        {
          OFFSET -0.50614 -9.67405 14.6709
        }
      }
    }
  }
}
MOTION
Frames:	20
Frame Time:	0.0333333
7.14893 95.4752 -1.02267 9.61941 17.757 -43.1589 -1.56776 8.90883 12.0585 -67.8693 -9.02707 8.07926 1.36662e-005 6.94176e-006 -68.8987 -34.8838 -42.1325 -48.5438 -1.28342 -14.3954 9.0951 67.7518 -0.965792 37.1375 -0.0147007 -3.65049e-006 86.5711 174.164 -9.73329 -164.943 -25.686 -16.5014 -37.7511 0.0076404 28.0211 -0.00570929 27.766 -11.5055 4.90366 40.2341 -51.6616 31.6094 0.0163964 45.189 -0.0311123 -16.2251 -5.8346 -8.80237 
6.63152 95.6534 -0.986677 9.03101 16.7477 -42.524 -1.13474 8.40519 11.9349 -67.784 -8.91404 8.91407 1.37538e-005 6.71058e-006 -69.6332 -35.0399 -42.2864 -48.3978 -1.36946 -13.7396 8.55908 67.5473 -1.06221 36.4852 -0.0342744 -2.14129e-006 87.9895 174.526 -9.53877 -163.937 -25.4035 -14.6366 -37.5641 0.00754566 27.1753 -0.0056654 27.7466 -11.4843 4.8914 38.4873 -50.4761 29.7136 -0.00768325 44.5467 -0.0376484 -16.4739 -5.74523 -8.86761 
6.10908 95.8307 -0.930925 8.4595 15.7732 -41.9219 -0.623192 7.77257 11.854 -67.6918 -8.74828 9.76171 1.383e-005 6.50162e-006 -70.2942 -35.243 -42.5364 -48.0781 -1.54312 -12.886 8.02713 67.2745 -1.15013 35.8166 0.001315 -8.2363e-007 89.2268 174.938 -9.39492 -163.117 -25.0989 -12.7796 -37.4114 0.00744659 26.2768 -0.00562084 27.7269 -11.4256 4.87833 36.8591 -49.273 27.928 -0.00113981 43.8988 -0.0441816 -16.7211 -5.66638 -8.9346 
5.57823 96.0284 -0.852587 7.91306 14.7405 -41.459 -0.137893 7.10472 11.8109 -67.575 -8.68696 10.6342 1.38982e-005 6.30779e-006 -70.9048 -35.5411 -42.7671 -47.6588 -1.7328 -12.0543 7.69654 67.0211 -1.10128 35.1828 0.00201416 4.53557e-007 90.4258 175.197 -9.2277 -162.291 -24.7876 -10.877 -37.1735 0.00733247 25.2244 -0.00557126 27.7042 -11.2804 4.85011 35.3021 -47.8805 26.2564 -0.000491053 43.1914 -0.050977 -16.9774 -5.62268 -8.96014 
5.04892 96.2657 -0.74436 7.40676 13.5631 -41.1216 0.206337 6.48866 11.7153 -67.3576 -8.75894 11.5518 1.39641e-005 6.11432e-006 -71.5121 -36.0016 -42.9566 -47.3813 -1.92499 -11.3169 7.40484 66.8934 -0.852888 34.6493 -0.0749054 1.78183e-006 91.6729 175.076 -8.98099 -161.433 -24.5299 -8.81841 -36.8547 0.0071929 23.9121 -0.00551323 27.6999 -10.9987 4.7971 33.6185 -46.226 24.5404 -0.000743227 42.3432 -0.0580088 -17.2426 -5.6096 -8.88739 
4.5281 96.513 -0.618587 6.93512 12.3541 -40.911 0.510168 5.81911 11.6265 -67.1445 -8.87706 12.46 1.40217e-005 5.939e-006 -72.0605 -36.114 -42.8002 -47.3829 -2.04416 -10.6422 7.2092 66.6986 -0.622994 34.2235 -0.00480659 3.04632e-006 92.8609 174.62 -8.38155 -161.03 -24.2885 -6.75187 -36.4836 0.00704206 22.4634 -0.00545383 27.685 -10.6323 4.73765 32.032 -44.4407 22.9538 -0.00075325 41.4247 -0.0645809 -17.4916 -5.60028 -8.74718 
4.02695 96.7626 -0.477764 6.50457 11.1457 -40.8335 0.786854 5.10704 11.5699 -66.949 -9.02313 13.2795 1.40583e-005 5.82487e-006 -72.4166 -36.413 -42.6852 -47.3252 -2.11385 -10.0263 7.1861 66.6105 -0.317731 33.8784 -0.000564719 4.19409e-006 93.9402 173.928 -7.57702 -161.241 -24.0822 -4.73845 -36.0707 0.00688821 20.9538 -0.00539692 27.6549 -10.2074 4.68059 30.5761 -42.5592 21.5272 -0.000179127 40.4527 -0.0707213 -17.7344 -5.60257 -8.54192 
3.53713 97.0065 -0.339281 6.08494 9.97561 -40.8841 1.1074 4.3752 11.5639 -66.8063 -9.24435 14.0287 1.40836e-005 5.74441e-006 -72.6673 -36.8289 -42.5944 -47.1609 -2.24982 -9.63403 7.25743 66.568 -0.0180484 33.6403 -0.00293373 5.2937e-006 94.9756 173.476 -7.27603 -161.446 -23.8611 -2.79557 -35.6164 0.0067323 19.3923 -0.00534315 27.6109 -9.74036 4.62789 29.3324 -40.6189 20.3061 0.00101544 39.462 -0.0765304 -17.9876 -5.6097 -8.29862 
3.05611 97.2402 -0.208749 5.64552 8.82898 -41.0543 1.45875 3.70291 11.5819 -66.7265 -9.59259 14.7336 1.41068e-005 5.66952e-006 -72.9003 -37.3741 -42.5628 -47.196 -2.26082 -9.37729 7.39946 66.493 0.267297 33.5714 -0.0064548 6.31514e-006 95.9389 173.398 -7.48473 -161.234 -23.604 -0.877389 -35.1047 0.00657093 17.7439 -0.00529176 27.5431 -9.22299 4.56603 28.2983 -38.6251 19.2869 0.00199973 38.493 -0.082063 -18.2518 -5.62943 -8.04468 
2.64329 97.4637 -0.0605246 5.22957 7.70492 -41.3317 1.80359 3.09133 11.6357 -66.699 -9.97848 15.3421 1.41324e-005 5.58573e-006 -73.1606 -37.9145 -42.6452 -47.2394 -2.16344 -9.20032 7.48356 66.4261 0.517446 33.602 -0.00682111 7.22317e-006 96.7966 173.446 -7.56569 -160.882 -23.3811 0.98193 -34.5386 0.00640723 16.0403 -0.00524419 27.4634 -8.66397 4.47379 27.3859 -36.6185 18.4348 0.00285556 37.5501 -0.0874114 -18.5055 -5.6764 -7.77392 
2.27372 97.6602 0.0740103 4.85072 6.63016 -41.6474 2.14942 2.51947 11.68 -66.6685 -10.3278 15.8607 1.41623e-005 5.48604e-006 -73.4698 -38.4163 -42.8389 -47.3081 -2.11664 -9.03728 7.61226 66.3432 0.74768 33.6445 -0.015946 8.04888e-006 97.5778 173.73 -7.76625 -160.243 -23.1996 2.73285 -33.8254 0.00625014 14.3774 -0.00520297 27.4132 -8.1914 4.23597 26.5629 -34.7087 17.6887 0.00342739 36.6683 -0.0922095 -18.7417 -5.7326 -7.48388 
1.93274 97.8232 0.18164 4.52952 5.65706 -42.0241 2.50101 1.94478 11.7678 -66.6546 -10.5911 16.3077 1.4199e-005 5.36052e-006 -73.8585 -38.7214 -43.0315 -47.2896 -2.14832 -8.90817 7.76344 66.1841 0.93058 33.6389 7.56695e-005 8.70833e-006 98.2028 174.081 -8.24701 -159.894 -23.0823 4.27691 -33.1156 0.00623357 12.8644 -0.00572827 27.3907 -7.77947 4.01656 25.904 -32.9449 17.1751 0.0041367 35.8637 -0.0970715 -18.9592 -5.77769 -7.24272 
1.62449 97.9612 0.264631 4.23996 4.75884 -42.4349 2.8436 1.42226 11.8848 -66.6904 -10.7978 16.6508 1.42301e-005 5.25205e-006 -74.1937 -38.7851 -43.1045 -47.3829 -2.22281 -8.74569 7.84084 65.9961 1.05524 33.6245 -0.00407481 9.29957e-006 98.764 174.376 -8.60195 -159.606 -23.0381 5.64117 -32.4184 0.0062671 11.5424 -0.00654152 27.3802 -7.43481 3.8322 25.3467 -31.289 16.8024 0.00407526 35.1108 -0.100446 -19.1563 -5.81391 -7.02729 
1.36421 98.0731 0.327713 4.01649 3.93272 -42.8777 3.09192 0.96772 11.9549 -66.7262 -11.0445 16.9526 1.42668e-005 5.12063e-006 -74.5992 -38.7702 -43.1797 -47.4522 -2.31859 -8.48283 7.74758 65.7787 1.15005 33.6793 0.00465313 9.87661e-006 99.3125 174.486 -8.57486 -159.301 -23.1393 6.72476 -31.7336 0.0063224 10.5795 -0.00743035 27.3757 -7.21769 3.71273 24.84 -29.7786 16.5468 0.00298727 34.4147 -0.101755 -19.3243 -5.84058 -6.81681 
1.18192 98.1624 0.363475 3.92695 3.22953 -43.3693 3.28761 0.474143 12.0183 -66.7863 -11.2541 17.2876 1.43059e-005 4.97653e-006 -75.0429 -38.9119 -43.3475 -47.8206 -2.43901 -8.10594 7.71391 65.5515 1.21618 33.733 -0.0148324 1.04636e-005 99.8713 174.358 -8.16828 -159.191 -23.3927 7.43057 -31.0742 0.00637118 9.94492 -0.00818165 27.3838 -7.09309 3.64335 24.3839 -28.5251 16.4562 0.00194301 33.8103 -0.1027 -19.4444 -5.85643 -6.60408 
1.05895 98.227 0.367105 3.92818 2.63615 -43.8309 3.39035 0.0369155 12 -66.8518 -11.4151 17.587 1.43391e-005 4.85067e-006 -75.4296 -38.9256 -43.362 -48.2177 -2.46138 -7.86348 7.83516 65.2384 1.25543 33.7698 0.00558372 1.09739e-005 100.358 173.815 -7.57721 -159.841 -23.7439 7.83482 -30.4915 0.00639505 9.63576 -0.00858416 27.4115 -7.07777 3.63455 23.9759 -27.5372 16.4584 0.00101853 33.3209 -0.103315 -19.5206 -5.8571 -6.41459 
0.957171 98.2644 0.331276 3.95073 2.12091 -44.2824 3.40256 -0.254592 11.9066 -66.8824 -11.5886 17.8216 1.43694e-005 4.73243e-006 -75.7924 -38.6924 -43.2583 -48.1758 -2.5195 -7.60551 7.93807 64.9522 1.33135 33.8553 -0.0167552 1.13995e-005 100.764 173.044 -6.89148 -160.715 -24.164 7.96551 -29.9333 0.00638554 9.74979 -0.00842858 27.4444 -7.23622 3.71726 23.6675 -26.7185 16.5518 0.000247998 32.9525 -0.10361 -19.5975 -5.84848 -6.26996 
0.879114 98.2777 0.247344 3.94193 1.76583 -44.6999 3.51106 -0.44708 11.688 -66.9566 -11.7841 18.0229 1.43959e-005 4.62632e-006 -76.1174 -38.4988 -43.1597 -48.1762 -2.62593 -7.182 8.22567 64.5887 1.39541 33.9419 -0.000367381 1.18938e-005 101.237 172.595 -6.5992 -161.122 -24.4885 7.89695 -29.4352 0.00627029 10.0814 -0.00749563 27.4779 -7.48192 3.84481 23.5595 -26.1159 16.7269 -0.000321237 32.7198 -0.103603 -19.682 -5.82222 -6.17209 
0.836541 98.2677 0.12771 3.95513 1.51944 -45.0648 3.58358 -0.516236 11.4328 -67.0124 -11.9247 18.1751 1.4422e-005 4.51948e-006 -76.4442 -38.6148 -43.0236 -48.3855 -2.77815 -6.80078 8.192 64.2502 1.3621 33.8921 0.00245535 1.25804e-005 101.895 172.324 -6.75376 -161.245 -24.7761 7.67363 -29.0176 0.00575578 10.554 -0.00435452 27.5166 -7.77532 3.99837 23.557 -25.7518 16.9574 -0.000614977 32.6523 -0.10333 -19.7472 -5.79735 -6.12263 
0.850594 98.2346 -0.0158587 4.02996 1.38611 -45.3992 3.62218 -0.499262 11.1918 -67.0679 -11.9469 18.2777 1.44481e-005 4.4101e-006 -76.7783 -38.9481 -42.9503 -48.7796 -2.83103 -6.44011 8.24733 63.9664 1.19556 33.7065 0.00404774 1.32562e-005 102.544 171.885 -6.67668 -162.215 -25.0689 7.24364 -28.6766 0.0051343 11.1794 -0.000908306 27.5603 -8.09854 4.17127 23.6438 -25.6572 17.2841 -0.000574052 32.7756 -0.102817 -19.7694 -5.79008 -6.12741 
